<svg width="68" height="68" viewBox="0 0 68 68" fill="none" xmlns="http://www.w3.org/2000/svg">
<circle cx="34" cy="34" r="31" stroke="white" stroke-width="4.30556"/>
<path d="M34.4222 21.5267C36.2286 21.5267 38.1406 21.5912 40.1581 21.7203C42.1874 21.8493 44.2988 22.1015 46.4923 22.4768V26.9459C45.507 26.6644 44.5099 26.4357 43.5011 26.2597C42.4924 26.072 41.4777 25.9254 40.4572 25.8199C39.4485 25.7143 38.4397 25.638 37.4309 25.5911C36.4222 25.5442 35.4193 25.5149 34.4222 25.5031C33.9413 25.5031 33.4076 25.5149 32.8211 25.5383C32.2463 25.5501 31.6305 25.5735 30.9736 25.6087C30.3285 25.6439 29.6482 25.6967 28.9326 25.7671C28.2171 25.8374 27.4899 25.9254 26.7509 26.031V32.4355H42.1288V36.7638H26.7509V43.8369C27.8887 44.0012 29.0734 44.1243 30.305 44.2064C31.5367 44.2885 32.9091 44.3296 34.4222 44.3296C36.4632 44.3296 38.4925 44.2299 40.51 44.0305C42.5276 43.8311 44.5216 43.4499 46.4923 42.8868V47.3559C44.2988 47.7313 42.1933 47.9835 40.1757 48.1125C38.1582 48.2415 36.2638 48.306 34.4926 48.306C32.6862 48.306 30.7684 48.2415 28.7391 48.1125C26.7216 47.9835 24.6043 47.7313 22.3874 47.3559V22.4768C24.6043 22.1015 26.7216 21.8493 28.7391 21.7203C30.7566 21.5912 32.651 21.5267 34.4222 21.5267Z" fill="white"/>
</svg>
